<svg width="49" height="49" viewBox="0 0 49 49" fill="none" xmlns="http://www.w3.org/2000/svg">
<g clip-path="url(#clip0_80_11)">
<path d="M31.4166 26.0337L32.7153 28.326C33.5002 27.633 34.1978 26.8388 34.7871 25.9684C36.1263 23.9896 36.9103 21.5961 36.9103 19.0317C36.9103 17.3248 36.562 15.6897 35.9323 14.2054C34.9884 11.9764 33.4148 10.084 31.436 8.7457C29.4561 7.40653 27.0635 6.62329 24.5 6.62329C22.7923 6.62329 21.1581 6.97165 19.6727 7.59946C17.4448 8.54434 15.5514 10.1169 14.2131 12.0977C12.874 14.0757 12.0899 16.4692 12.0899 19.0317C12.0899 20.7413 12.4383 22.3755 13.0678 23.8599C13.7976 25.5833 14.9052 27.1035 16.2848 28.326L17.5835 26.0318C17.1193 25.575 16.7011 25.0732 16.3362 24.5327C15.2727 22.9583 14.6532 21.0722 14.6523 19.0317C14.6523 17.6723 14.9281 16.3809 15.4272 15.2044C16.1744 13.4397 17.4272 11.9322 18.9999 10.8689C20.5734 9.80446 22.4604 9.18593 24.4999 9.18498C25.8594 9.18498 27.1507 9.46156 28.3272 9.95893C30.0919 10.7062 31.6011 11.9589 32.6637 13.5325C33.727 15.107 34.3465 16.9931 34.3475 19.0317C34.3465 20.392 34.0709 21.6825 33.5727 22.8599C33.0674 24.0548 32.3293 25.1311 31.4166 26.0337Z" fill="#078FD7"/>
<path d="M42.0334 11.6298C40.5858 8.21343 38.1722 5.3098 35.1353 3.25553C32.0994 1.20232 28.433 0 24.5 0C21.8796 0 19.374 0.534023 17.0974 1.50005C13.6819 2.9467 10.7773 5.36033 8.72306 8.39718C6.66975 11.4331 5.46743 15.1004 5.46839 19.0315C5.46743 21.6538 6.00145 24.1585 6.96652 26.4351C8.27086 29.5105 10.3573 32.1716 12.9769 34.1697L14.2544 31.9141C12.941 30.8663 11.7883 29.6264 10.8462 28.232C9.06768 25.6015 8.03093 22.4406 8.03093 19.0315C8.03093 16.7595 8.49232 14.5986 9.32599 12.6298C10.5769 9.67664 12.6698 7.1563 15.2994 5.37957C17.9309 3.60121 21.0911 2.56437 24.5 2.56255C26.7731 2.56255 28.9339 3.02393 30.9027 3.85942C33.855 5.10844 36.3752 7.20137 38.1538 9.83378C39.9323 12.4634 40.9691 15.6243 40.9691 19.0315C40.9691 21.3054 40.5076 23.4655 39.674 25.4351C38.594 27.9839 36.8853 30.2101 34.7465 31.9151L36.0231 34.1697C37.673 32.9114 39.1114 31.3902 40.2769 29.6678C42.3303 26.6319 43.5325 22.9645 43.5315 19.0315C43.5326 16.4121 42.9986 13.9075 42.0334 11.6298Z" fill="#078FD7"/>
<path d="M25.6315 23.4335C27.7217 22.9224 29.2777 21.051 29.2777 18.8037C29.2777 16.1658 27.1388 14.0261 24.5 14.0261C21.8612 14.0261 19.7224 16.1659 19.7224 18.8037C19.7224 21.051 21.2785 22.9224 23.3686 23.4335V24.4471L11.7663 44.9468L13.7351 46.0617L17.1359 40.0523L23.3686 42.5542V49.0001H25.6315V42.5533L31.8641 40.0524L35.2649 46.0618L37.2337 44.9468L25.6315 24.4472V23.4335ZM23.3686 40.1148L18.2609 38.0652L23.3686 29.0412V40.1148ZM30.7391 38.0652L25.6315 40.1148V29.0411L30.7391 38.0652Z" fill="#078FD7"/>
</g>
<defs>
<clipPath id="clip0_80_11">
<rect width="49" height="49" fill="white"/>
</clipPath>
</defs>
</svg>
