<svg width="63" height="63" viewBox="0 0 63 63" fill="none" xmlns="http://www.w3.org/2000/svg">
<path d="M41.0857 33.4718L42.7917 36.419C43.8228 35.528 44.7392 34.5069 45.5132 33.3879C47.2725 30.8436 48.3023 27.7664 48.3023 24.4692C48.3023 22.2747 47.8447 20.1724 47.0177 18.264C45.7777 15.3982 43.7106 12.9651 41.1113 11.2444C38.5104 9.52258 35.3675 8.51556 32.0001 8.51556C29.7568 8.51556 27.6101 8.96345 25.659 9.77064C22.7323 10.9855 20.2451 13.0074 18.4871 15.5541C16.7281 18.0972 15.6981 21.1746 15.6981 24.4692C15.6981 26.6673 16.1557 28.7683 16.9827 30.6769C17.9414 32.8927 19.3963 34.8472 21.2085 36.419L22.9145 33.4693C22.3047 32.882 21.7553 32.2369 21.276 31.5419C19.879 29.5177 19.0653 27.0927 19.064 24.4692C19.064 22.7214 19.4263 21.0611 20.0819 19.5484C21.0635 17.2795 22.7092 15.3413 24.7751 13.9742C26.8421 12.6056 29.3208 11.8104 32 11.8092C33.7858 11.8092 35.4821 12.1648 37.0275 12.8042C39.3457 13.765 41.3281 15.3757 42.7239 17.3988C44.1208 19.4232 44.9345 21.8482 44.9358 24.4692C44.9345 26.2182 44.5725 27.8774 43.918 29.3912C43.2542 30.9274 42.2847 32.3114 41.0857 33.4718Z" fill="#707070"/>
<path d="M55.032 14.9527C53.1305 10.5601 49.9599 6.82689 45.9707 4.18569C41.9827 1.54584 37.1665 0 32.0001 0C28.5578 0 25.2664 0.686602 22.2759 1.92864C17.7893 3.78861 13.9739 6.89186 11.2754 10.7964C8.57812 14.6997 6.99874 19.4148 7 24.4691C6.99874 27.8406 7.70024 31.061 8.96796 33.988C10.6814 37.9421 13.4221 41.3634 16.8632 43.9324L18.5414 41.0324C16.8161 39.6852 15.3019 38.0911 14.0644 36.2983C11.7281 32.9163 10.3662 28.8522 10.3662 24.4691C10.3662 21.548 10.9723 18.7696 12.0674 16.2384C13.7106 12.4414 16.4598 9.20095 19.9141 6.91659C23.3709 4.63013 27.5221 3.29704 32.0001 3.2947C34.9861 3.2947 37.8245 3.88791 40.4107 4.96211C44.2888 6.568 47.5994 9.25891 49.9358 12.6434C52.2721 16.0244 53.6339 20.0884 53.6339 24.4691C53.6339 27.3927 53.0277 30.1699 51.9328 32.7023C50.5141 35.9793 48.2695 38.8416 45.4599 41.0337L47.1369 43.9324C49.3042 42.3146 51.1937 40.3589 52.7246 38.1443C55.422 34.241 57.0013 29.5258 57 24.4691C57.0014 21.1013 56.2999 17.881 55.032 14.9527Z" fill="#707070"/>
<path d="M33.4864 30.1286C36.232 29.4715 38.2761 27.0655 38.2761 24.1761C38.2761 20.7844 35.4664 18.0334 32.0001 18.0334C28.5337 18.0334 25.7242 20.7845 25.7242 24.1761C25.7242 27.0655 27.7682 29.4715 30.5138 30.1286V31.4319L15.273 57.7885L17.8592 59.222L22.3266 51.4957L30.5138 54.7124V63H33.4864V54.7113L41.6735 51.4958L46.1409 59.2222L48.7271 57.7887L33.4864 31.432V30.1286ZM30.5138 51.576L23.8044 48.9409L30.5138 37.3385V51.576ZM40.1958 48.9409L33.4864 51.576V37.3384L40.1958 48.9409Z" fill="#5A5A5A"/>
</svg>
