<svg width="147" height="43" viewBox="0 0 147 43" fill="none" xmlns="http://www.w3.org/2000/svg">
<path d="M3 5V40M26 5V40M4 28H25" stroke="#1B6286" stroke-width="5" stroke-linecap="round"/>
<path d="M32.0095 28.5146H53.4669C54.0356 28.5146 54.4922 28.0426 54.4211 27.4784C53.894 23.2957 51.1006 16.6469 43.0095 17.0146C34.2095 17.4146 32.0095 24.848 32.0095 28.5146ZM32.0095 28.5146C31.8428 32.6813 33.8095 40.5146 43.0095 40.5146C45.1761 40.348 49.9095 39.4146 51.5095 37.0146" stroke="#1B6286" stroke-width="4" stroke-linecap="round"/>
<path d="M93.0095 28.5146H114.467C115.036 28.5146 115.492 28.0426 115.421 27.4784C114.894 23.2957 112.101 16.6469 104.009 17.0146C95.2095 17.4146 93.0095 24.848 93.0095 28.5146ZM93.0095 28.5146C92.8428 32.6813 94.8095 40.5146 104.009 40.5146C106.176 40.348 110.909 39.4146 112.509 37.0146" stroke="#1B6286" stroke-width="4" stroke-linecap="round"/>
<path d="M60 17V24M60 40.5V24M60 24C61.5 21.6667 66 17 72 17" stroke="#1B6286" stroke-width="4" stroke-linecap="round"/>
<path d="M78 17V24M78 40.5V24M78 24C79.5 21.6667 84 17 90 17" stroke="#1B6286" stroke-width="4" stroke-linecap="round"/>
<path d="M145 2L145 39" stroke="#1B6286" stroke-width="4" stroke-linecap="round"/>
<path d="M133 15.25C139.416 15.25 144.75 20.6594 144.75 27.5C144.75 34.3406 139.416 39.75 133 39.75C126.584 39.75 121.25 34.3406 121.25 27.5C121.25 20.6594 126.584 15.25 133 15.25Z" stroke="#1B6286" stroke-width="4.5"/>
</svg>
