<svg width="29" height="31" viewBox="0 0 29 31" fill="none" xmlns="http://www.w3.org/2000/svg">
<path d="M9.87797 23.2083H4.6431C2.70302 23.2083 1.73299 23.2083 1.52889 23.0577C1.29959 22.8884 1.24357 22.7885 1.21873 22.5047C1.19664 22.252 1.79117 21.2791 2.98026 19.3335C4.20796 17.3246 5.25044 14.3996 5.25044 10.2583C5.25044 7.96864 6.22499 5.77272 7.95969 4.15364C9.6944 2.53458 12.0472 1.625 14.5004 1.625C16.9537 1.625 19.3064 2.53458 21.0411 4.15364C22.7759 5.77272 23.7504 7.96864 23.7504 10.2583C23.7504 14.3996 24.7929 17.3246 26.0207 19.3335C27.2096 21.2791 27.8042 22.252 27.7822 22.5047C27.7574 22.7885 27.7013 22.8884 27.472 23.0577C27.2679 23.2083 26.2979 23.2083 24.3578 23.2083H19.1254M9.87797 23.2083L9.87544 24.75C9.87544 27.3044 11.9462 29.375 14.5004 29.375C17.0548 29.375 19.1254 27.3044 19.1254 24.75V23.2083M9.87797 23.2083H19.1254" stroke="#707070" stroke-width="2" stroke-linecap="round" stroke-linejoin="round"/>
</svg>
